PathFileType	4	(X/Y/Z)	D:\TRACE\v60_Jaco2_6-2-23\JustBodyDRS_Motion3_6-v60.trc
DataRate	CameraRate	NumFrames	NumMarkers	Units	OrigDataRate	OrigDataStartFrame	OrigNumFrames
100.00	100.00	      20	9	mm	100.00	4376	      7000
Frame#	Time	front left toe			Front right toe			aft left toe			aft right toe			Arm			FL body			FR body			AL Body			AR Body			
		X1	Y1	Z1	X2	Y2	Z2	X3	Y3	Z3	X4	Y4	Z4	X5	Y5	Z5	X6	Y6	Z6	X7	Y7	Z7	X8	Y8	Z8	X9	Y9	Z9	

4376	43.750	-262.63770	4.84068	-228.20245	107.64089	-16.76447	-234.76144	-300.02454	60.56061	363.23419	61.03729	83.02265	405.10257	-51.57730	1131.98840	-402.46494	-155.58946	481.62830	-418.73190	3.32292	479.72562	-412.22845	-186.34694	627.53320	513.71436	-35.63976	616.64703	521.15784	
4377	43.760	-261.50549	15.48984	-228.98013	108.05077	-16.73662	-234.66504	-299.62759	60.24770	363.23953	61.13759	95.20445	403.04364	-50.68233	1131.91748	-402.31924	-154.92435	481.29898	-418.60910	3.61256	479.67981	-412.30542	-185.51131	627.68042	513.46912	-35.00798	616.84808	520.89392	
4378	43.770	-262.20343	26.76764	-230.26378	108.28523	-16.74557	-234.46651	-299.50491	59.91280	363.43338	63.83550	106.84426	400.74094	-50.63186	1132.29541	-401.96756	-154.38863	481.04700	-418.87280	4.15391	479.44376	-412.47983	-185.37444	627.58698	513.23370	-32.35643	616.13446	520.56354	
4379	43.780	-262.79590	39.20779	-232.44020	108.48277	-16.58852	-234.08342	-299.72308	59.59352	363.60989	67.75061	119.78380	398.21323	-48.72756	1131.88501	-401.69388	-153.84926	480.76419	-419.45554	4.85479	479.14709	-412.77222	-185.36772	626.83032	513.01849	-32.51251	615.57062	520.47296	
4380	43.790	-263.11172	50.89589	-234.87054	108.91550	-16.56127	-234.07722	-299.90808	59.31150	363.42480	71.42088	131.51492	395.77252	-47.54453	1131.54810	-401.41537	-153.18408	480.57980	-419.80930	4.85238	479.09015	-413.01749	-185.40588	626.04230	512.75842	-32.38062	614.78461	520.18298	
4381	43.800	-263.94257	63.41306	-237.21396	109.06806	-16.57592	-233.93207	-299.91608	59.12481	363.45755	74.70151	142.98849	393.41003	-47.44704	1131.45996	-401.17569	-152.48259	480.52444	-420.24384	5.31126	478.99014	-413.29318	-185.32616	625.47046	512.61761	-32.51046	614.06396	520.08160	
4382	43.810	-264.39529	75.04837	-239.56149	109.29259	-16.69038	-233.91527	-299.79611	58.96484	363.49271	77.26846	154.24731	391.54419	-46.61278	1131.13745	-401.08310	-151.91560	480.40002	-420.48749	6.05855	478.85101	-413.47891	-184.99973	624.91864	512.27234	-32.32417	613.50146	520.00000	
4383	43.820	-262.96130	84.89034	-241.59518	109.29425	-16.66828	-233.87022	-299.66318	58.63831	363.51303	77.85818	164.15138	389.56653	-44.95992	1130.75989	-401.14124	-151.19432	480.10260	-420.49817	7.33145	478.45294	-413.59027	-184.92020	624.41333	511.88336	-32.18835	613.03632	519.85333	
4384	43.830	-262.09705	93.75255	-243.46860	109.33410	-16.63394	-233.81854	-299.52026	58.23097	363.69620	78.06760	173.45186	387.66589	-44.68060	1130.78516	-401.22134	-150.67064	479.89099	-420.61938	7.89952	478.32562	-413.81305	-184.99271	624.09973	511.62997	-32.08928	612.63165	519.62915	
4385	43.840	-261.96967	101.45641	-245.18604	109.31912	-16.41733	-233.79359	-299.46536	57.88999	363.80002	78.05689	181.06546	386.28033	-44.30862	1130.71887	-401.37967	-149.95303	479.59033	-420.75070	8.43496	478.24826	-414.06381	-185.00206	623.94244	511.40387	-32.06440	612.51953	519.54480	
4386	43.850	-262.31265	107.32957	-246.62088	109.42117	-16.27489	-233.61264	-299.38684	57.63997	363.83728	78.61662	185.88216	385.38904	-43.88657	1130.49109	-401.62506	-149.33382	479.36282	-420.81689	8.45690	478.12967	-413.86392	-184.94006	624.02411	511.28796	-32.85480	612.75787	519.52325	
4387	43.860	-262.78680	109.59026	-247.31322	109.40706	-16.16303	-233.47197	-299.14606	57.39816	364.05627	79.18626	187.06219	384.51294	-43.75801	1130.33948	-401.94717	-149.30704	479.62897	-421.44400	8.99796	478.01096	-413.75903	-185.01576	623.99597	511.28156	-33.17047	612.84045	519.61414	
4388	43.870	-262.77951	108.40422	-247.32797	109.59690	-16.06692	-233.26871	-299.09705	57.27290	364.09290	81.71014	186.06596	384.46512	-42.55886	1129.99597	-401.97134	-148.34924	479.53497	-421.33557	9.58833	477.90121	-413.71021	-185.07594	623.81488	511.22916	-33.32471	612.79633	519.63055	
4389	43.880	-262.66571	104.16636	-247.26834	109.54160	-16.00801	-233.17525	-299.17416	57.12007	364.09003	83.46537	182.42198	384.26553	-42.80348	1130.01831	-402.11148	-147.55112	479.40955	-421.45483	11.04281	477.58020	-413.62881	-185.43687	623.59961	511.12482	-33.71637	612.68652	519.61438	
4390	43.890	-261.60062	98.49434	-247.42902	109.65240	-15.84450	-233.03070	-299.28290	56.89442	364.05405	84.81258	177.36821	384.13589	-42.12386	1129.94617	-401.93442	-146.88113	479.16467	-421.53186	11.71706	477.58655	-413.69650	-185.75804	623.31299	510.96326	-34.04991	612.41522	519.63910	
4391	43.900	-260.51929	91.88735	-248.30920	109.77161	-15.69757	-232.80952	-299.26819	56.73444	364.19141	85.37698	171.45155	383.67224	-41.35365	1130.05054	-401.39871	-145.98425	478.97507	-421.32425	12.47858	477.60361	-413.60843	-186.05699	623.07611	510.92484	-33.93078	612.10645	519.57538	
4392	43.910	-259.44275	84.66629	-249.52226	109.90174	-15.58808	-232.73566	-299.15094	56.64619	364.26773	85.73752	164.39848	383.15393	-40.93377	1130.33350	-400.85461	-145.55659	478.93832	-421.38382	12.97846	477.60849	-413.62488	-185.99010	622.92218	510.88568	-33.05003	611.62653	519.52380	
4393	43.920	-257.50775	75.55527	-250.66362	109.93029	-15.48427	-232.65771	-299.37125	56.82431	364.41986	85.17911	155.63567	381.96494	-40.96138	1130.64783	-400.59705	-145.04684	479.04572	-421.82776	13.46037	477.73172	-413.60999	-186.19107	622.67413	510.80142	-33.15480	611.35663	519.43011	
4394	43.930	-257.03558	66.29073	-252.45561	109.98492	-15.39595	-232.61105	-299.27744	56.59581	364.33533	85.40472	146.05283	381.14178	-41.15155	1130.72876	-400.43991	-144.51219	479.23862	-422.07788	14.10327	477.87698	-413.53665	-186.41925	622.21149	510.66574	-33.48750	610.97638	519.48566	
4395	43.940	-256.63742	56.24563	-253.84384	110.10016	-15.31033	-232.48613	-299.26376	56.32355	364.34961	85.22703	134.95956	379.95776	-41.49313	1130.68872	-400.49902	-143.90297	479.34329	-422.20453	14.49146	477.89395	-413.63745	-186.62090	621.56281	510.53381	-33.54919	610.64484	519.60425	
